<mxfile host="app.diagrams.net" modified="2021-05-03T12:25:00.721Z" agent="5.0 (Windows)" etag="lx4DJxmRrQ5m87urXzGj" version="14.6.9" type="github">
  <diagram id="u5W5YF0wvYuZV8YHRvrz" name="Page-1">
    <mxGraphModel dx="2062" dy="1140" grid="1" gridSize="10" guides="1" tooltips="1" connect="1" arrows="1" fold="1" page="1" pageScale="1" pageWidth="827" pageHeight="1169" math="0" shadow="0">
      <root>
        <mxCell id="0" />
        <mxCell id="1" parent="0" />
        <mxCell id="UGxATluOnxXf557qcqXb-16" value="COUNTRY" style="shape=table;startSize=30;container=1;collapsible=1;childLayout=tableLayout;fixedRows=1;rowLines=0;fontStyle=1;align=center;resizeLast=1;" vertex="1" parent="1">
          <mxGeometry x="330" y="380" width="180" height="220" as="geometry" />
        </mxCell>
        <mxCell id="UGxATluOnxXf557qcqXb-17" value="" style="shape=partialRectangle;collapsible=0;dropTarget=0;pointerEvents=0;fillColor=none;top=0;left=0;bottom=1;right=0;points=[[0,0.5],[1,0.5]];portConstraint=eastwest;" vertex="1" parent="UGxATluOnxXf557qcqXb-16">
          <mxGeometry y="30" width="180" height="30" as="geometry" />
        </mxCell>
        <mxCell id="UGxATluOnxXf557qcqXb-18" value="PK" style="shape=partialRectangle;connectable=0;fillColor=none;top=0;left=0;bottom=0;right=0;fontStyle=1;overflow=hidden;" vertex="1" parent="UGxATluOnxXf557qcqXb-17">
          <mxGeometry width="30" height="30" as="geometry" />
        </mxCell>
        <mxCell id="UGxATluOnxXf557qcqXb-19" value="UniqueID" style="shape=partialRectangle;connectable=0;fillColor=none;top=0;left=0;bottom=0;right=0;align=left;spacingLeft=6;fontStyle=5;overflow=hidden;" vertex="1" parent="UGxATluOnxXf557qcqXb-17">
          <mxGeometry x="30" width="150" height="30" as="geometry" />
        </mxCell>
        <mxCell id="UGxATluOnxXf557qcqXb-20" value="" style="shape=partialRectangle;collapsible=0;dropTarget=0;pointerEvents=0;fillColor=none;top=0;left=0;bottom=0;right=0;points=[[0,0.5],[1,0.5]];portConstraint=eastwest;" vertex="1" parent="UGxATluOnxXf557qcqXb-16">
          <mxGeometry y="60" width="180" height="30" as="geometry" />
        </mxCell>
        <mxCell id="UGxATluOnxXf557qcqXb-21" value="" style="shape=partialRectangle;connectable=0;fillColor=none;top=0;left=0;bottom=0;right=0;editable=1;overflow=hidden;" vertex="1" parent="UGxATluOnxXf557qcqXb-20">
          <mxGeometry width="30" height="30" as="geometry" />
        </mxCell>
        <mxCell id="UGxATluOnxXf557qcqXb-22" value="id (integer)" style="shape=partialRectangle;connectable=0;fillColor=none;top=0;left=0;bottom=0;right=0;align=left;spacingLeft=6;overflow=hidden;" vertex="1" parent="UGxATluOnxXf557qcqXb-20">
          <mxGeometry x="30" width="150" height="30" as="geometry" />
        </mxCell>
        <mxCell id="UGxATluOnxXf557qcqXb-23" value="" style="shape=partialRectangle;collapsible=0;dropTarget=0;pointerEvents=0;fillColor=none;top=0;left=0;bottom=0;right=0;points=[[0,0.5],[1,0.5]];portConstraint=eastwest;" vertex="1" parent="UGxATluOnxXf557qcqXb-16">
          <mxGeometry y="90" width="180" height="30" as="geometry" />
        </mxCell>
        <mxCell id="UGxATluOnxXf557qcqXb-24" value="" style="shape=partialRectangle;connectable=0;fillColor=none;top=0;left=0;bottom=0;right=0;editable=1;overflow=hidden;" vertex="1" parent="UGxATluOnxXf557qcqXb-23">
          <mxGeometry width="30" height="30" as="geometry" />
        </mxCell>
        <mxCell id="UGxATluOnxXf557qcqXb-25" value="name (string)" style="shape=partialRectangle;connectable=0;fillColor=none;top=0;left=0;bottom=0;right=0;align=left;spacingLeft=6;overflow=hidden;" vertex="1" parent="UGxATluOnxXf557qcqXb-23">
          <mxGeometry x="30" width="150" height="30" as="geometry" />
        </mxCell>
        <mxCell id="UGxATluOnxXf557qcqXb-26" value="" style="shape=partialRectangle;collapsible=0;dropTarget=0;pointerEvents=0;fillColor=none;top=0;left=0;bottom=0;right=0;points=[[0,0.5],[1,0.5]];portConstraint=eastwest;" vertex="1" parent="UGxATluOnxXf557qcqXb-16">
          <mxGeometry y="120" width="180" height="30" as="geometry" />
        </mxCell>
        <mxCell id="UGxATluOnxXf557qcqXb-27" value="" style="shape=partialRectangle;connectable=0;fillColor=none;top=0;left=0;bottom=0;right=0;editable=1;overflow=hidden;" vertex="1" parent="UGxATluOnxXf557qcqXb-26">
          <mxGeometry width="30" height="30" as="geometry" />
        </mxCell>
        <mxCell id="UGxATluOnxXf557qcqXb-28" value="visa (boolean)" style="shape=partialRectangle;connectable=0;fillColor=none;top=0;left=0;bottom=0;right=0;align=left;spacingLeft=6;overflow=hidden;" vertex="1" parent="UGxATluOnxXf557qcqXb-26">
          <mxGeometry x="30" width="150" height="30" as="geometry" />
        </mxCell>
        <mxCell id="UGxATluOnxXf557qcqXb-29" value="flag (string)" style="shape=partialRectangle;connectable=0;fillColor=none;top=0;left=0;bottom=0;right=0;align=left;spacingLeft=6;overflow=hidden;" vertex="1" parent="1">
          <mxGeometry x="360" y="530" width="150" height="30" as="geometry" />
        </mxCell>
        <mxCell id="UGxATluOnxXf557qcqXb-30" value="languageID (integer)" style="shape=partialRectangle;connectable=0;fillColor=none;top=0;left=0;bottom=0;right=0;align=left;spacingLeft=6;overflow=hidden;" vertex="1" parent="1">
          <mxGeometry x="360" y="560" width="150" height="30" as="geometry" />
        </mxCell>
      </root>
    </mxGraphModel>
  </diagram>
</mxfile>
